<svg width="72" height="72" viewBox="0 0 72 72" fill="none" xmlns="http://www.w3.org/2000/svg">
<path d="M52.3372 8.15192C43.147 8.14935 35.5498 15.3153 35.0163 24.49H8.61184C5.38488 24.4947 2.66066 26.8907 2.24477 30.0912C2.19343 30.2371 2.17931 30.3928 2.20156 30.5456C2.19471 30.6671 2.19043 30.7894 2.19043 30.9122V56.5226C2.18872 58.0205 2.71371 59.471 3.67256 60.622C3.74701 60.7645 3.85611 60.886 3.99046 60.9754C5.19833 62.2337 6.86786 62.9453 8.61184 62.9449H46.8716C48.6143 62.9453 50.2817 62.2355 51.4887 60.9797C51.54 60.9454 51.5875 60.9069 51.632 60.8641C51.7031 60.794 51.7634 60.7127 51.8092 60.6241C52.7697 59.4732 53.2951 58.0214 53.2934 56.5226V42.8326C62.419 42.3341 69.6905 34.7532 69.6905 25.5053C69.6798 15.9254 61.9166 8.16262 52.3372 8.15192ZM8.61184 26.403H35.0077C35.2135 30.5216 36.8861 34.4297 39.7224 37.4222C40.146 37.8706 40.5922 38.2968 41.0603 38.6981L30.3119 47.8147C28.8358 49.073 26.6639 49.0743 25.1878 47.8168L4.18942 30.0364C4.61001 27.9262 6.46053 26.4064 8.61184 26.403ZM8.61184 61.0319C7.63588 61.0323 6.68645 60.7152 5.90645 60.1278L17.4456 48.3255C17.6899 48.0821 17.7844 47.7261 17.6933 47.3932C17.6013 47.0612 17.3382 46.8036 17.004 46.7198C16.6694 46.6359 16.3156 46.7382 16.0781 46.9876L4.65109 58.6752C4.29083 58.015 4.10214 57.2748 4.10299 56.5226V32.4697L23.9517 49.2767C26.1411 51.1409 29.3608 51.1396 31.5489 49.2733L42.6148 39.8884C45.2115 41.6547 48.2442 42.6734 51.3804 42.833V56.5226C51.3817 57.2773 51.1918 58.0205 50.8285 58.6825L39.3326 46.9863C38.9612 46.6162 38.3613 46.6145 37.9878 46.982C37.6139 47.3491 37.6053 47.949 37.9686 48.3268L49.571 60.1321C48.7927 60.717 47.845 61.0327 46.8716 61.0319H8.61184ZM52.3372 40.9457C49.0499 40.959 45.8456 39.912 43.2009 37.9592C43.1607 37.9237 43.1179 37.8916 43.0734 37.8625C42.3717 37.3337 41.7158 36.7466 41.1129 36.1083C36.0825 30.7835 35.4861 22.6579 39.6843 16.6549C43.8825 10.6532 51.7206 8.42618 58.4475 11.325C65.1744 14.2242 68.9383 21.4508 67.4588 28.6244C65.9788 35.798 59.6622 40.9453 52.3372 40.9457Z" fill="black"/>
<path d="M59.2981 18.0196C59.2926 18.0211 59.2871 18.0225 59.2817 18.0241C59.2803 18.0245 59.279 18.0248 59.2776 18.0252L41.3919 23.5758C41.1592 23.6481 41.0004 23.8632 41 24.1069C40.9996 24.3506 41.1576 24.5662 41.3901 24.6392L48.2867 26.8045L46.984 30.2995C46.9079 30.5037 46.9579 30.7336 47.1121 30.8878C47.2665 31.0422 47.4966 31.0919 47.7005 31.0159L51.1954 29.7132L53.3608 36.6099C53.4337 36.8421 53.6488 37 53.8922 37C53.8925 37 53.8928 37 53.8931 37C54.1368 36.9996 54.3518 36.8408 54.4241 36.6081L59.9746 18.7222C59.975 18.7208 59.9753 18.7194 59.9757 18.718C59.9773 18.7127 59.9787 18.7073 59.9801 18.702C60.0927 18.285 59.7091 17.9088 59.2981 18.0196ZM43.4261 24.1109L56.5716 20.0313L48.9065 25.8316L43.4261 24.1109ZM48.4534 29.5464L49.4789 26.7954L56.5718 21.428L51.2044 28.521L48.4534 29.5464ZM53.8889 34.5739L52.1682 29.0933L57.9685 21.4282L53.8889 34.5739Z" fill="#EBA8AF"/>
</svg>
