<svg width="172" height="93" viewBox="0 0 172 93" fill="none" xmlns="http://www.w3.org/2000/svg">
<path fill-rule="evenodd" clip-rule="evenodd" d="M2.81908 20.8632L57.3212 1.02606C58.8782 0.459383 60.5997 1.26214 61.1664 2.81908L84.7658 67.6579C85.3325 69.2148 84.5297 70.9363 82.9728 71.503L28.4706 91.3402C26.9137 91.9069 25.1921 91.1041 24.6255 89.5472L1.02606 24.7084C0.459384 23.1514 1.26214 21.4299 2.81908 20.8632ZM3.1611 21.8029C2.12314 22.1807 1.58797 23.3284 1.96575 24.3663L25.5651 89.2051C25.9429 90.2431 27.0906 90.7783 28.1286 90.4005L82.6307 70.5633C83.6687 70.1855 84.2039 69.0378 83.8261 67.9999L60.2267 3.1611C59.8489 2.12314 58.7012 1.58797 57.6633 1.96575L3.1611 21.8029Z" fill="#D2D2D2"/>
<path fill-rule="evenodd" clip-rule="evenodd" d="M56.81 5.46887L6.06662 23.938C5.54764 24.1268 5.28006 24.7007 5.46895 25.2197L23.938 75.9631C24.1269 76.482 24.7008 76.7496 25.2197 76.5607L75.9632 58.0917C76.4821 57.9028 76.7497 57.3289 76.5608 56.8099L58.0917 6.06654C57.9028 5.54756 57.329 5.27998 56.81 5.46887ZM5.7246 22.9983C4.68664 23.376 4.15147 24.5237 4.52926 25.5617L22.9983 76.3051C23.3761 77.343 24.5238 77.8782 25.5618 77.5004L76.3052 59.0313C77.3431 58.6536 77.8783 57.5059 77.5005 56.4679L59.0314 5.72452C58.6536 4.68656 57.506 4.15139 56.468 4.52918L5.7246 22.9983Z" fill="#D2D2D2"/>
<rect x="24.3662" y="80.0639" width="58" height="4" rx="2" transform="rotate(-20 24.3662 80.0639)" fill="#D2D2D2"/>
<rect x="26.0767" y="84.7623" width="8" height="4" rx="2" transform="rotate(-20 26.0767 84.7623)" fill="#D2D2D2"/>
<rect x="35.4731" y="81.3421" width="8" height="4" rx="2" transform="rotate(-20 35.4731 81.3421)" fill="#D2D2D2"/>
<rect x="44.8701" y="77.9219" width="8" height="4" rx="2" transform="rotate(-20 44.8701 77.9219)" fill="#D2D2D2"/>
<path d="M43.4107 28.1377C43.5497 28.0871 43.6751 28.0048 43.7768 27.8973C43.8785 27.7899 43.9538 27.6602 43.9968 27.5186L45.3797 22.9581C45.4531 22.7162 45.4274 22.455 45.3082 22.2321C45.189 22.0092 44.9861 21.8427 44.7442 21.7694C44.5023 21.696 44.2412 21.7218 44.0183 21.8409C43.7953 21.9601 43.6289 22.163 43.5555 22.4049L42.1726 26.9654C42.0992 27.2073 42.125 27.4685 42.2441 27.6914C42.3633 27.9143 42.5662 28.0808 42.8081 28.1541C43.0054 28.214 43.2169 28.2082 43.4107 28.1377Z" fill="#D2D2D2"/>
<path d="M46.5542 30.6448C46.6781 30.7257 46.8191 30.7766 46.9661 30.7935C47.1131 30.8104 47.262 30.7929 47.4011 30.7423C47.5949 30.6718 47.7606 30.5403 47.8733 30.3676L50.4779 26.3767C50.616 26.165 50.6644 25.9071 50.6124 25.6597C50.5604 25.4123 50.4123 25.1957 50.2006 25.0576C49.9889 24.9194 49.731 24.871 49.4836 24.923C49.2363 24.975 49.0197 25.1231 48.8815 25.3348L46.2769 29.3257C46.1388 29.5374 46.0904 29.7953 46.1423 30.0427C46.1943 30.2901 46.3425 30.5067 46.5542 30.6448Z" fill="#D2D2D2"/>
<path d="M56.049 29.4205C55.9845 29.3095 55.8982 29.2127 55.7954 29.1359C55.6925 29.0591 55.5752 29.0038 55.4505 28.9734C55.3258 28.943 55.1962 28.9382 55.0695 28.9591C54.9429 28.98 54.8218 29.0263 54.7134 29.0952L50.5612 31.6208C50.4479 31.6754 50.3464 31.7517 50.2626 31.8455C50.1787 31.9393 50.1142 32.0487 50.0726 32.1674C49.9887 32.4072 50.0035 32.6705 50.1137 32.8994C50.2239 33.1283 50.4205 33.304 50.6603 33.3879C50.9001 33.4719 51.1634 33.4571 51.3923 33.3469L51.5714 33.2817L55.7237 30.7561C55.8347 30.6916 55.9315 30.6053 56.0083 30.5025C56.0851 30.3996 56.1404 30.2823 56.1708 30.1576C56.2012 30.0329 56.2061 29.9033 56.1851 29.7766C56.1642 29.65 56.1179 29.5289 56.049 29.4205Z" fill="#D2D2D2"/>
<path d="M44.4805 33.5297C44.3844 33.4488 44.2734 33.3876 44.1537 33.3496C44.034 33.3116 43.9079 33.2976 43.7828 33.3082C43.6577 33.3189 43.5359 33.3542 43.4243 33.412C43.3128 33.4697 43.2138 33.5489 43.1328 33.645C43.0519 33.741 42.9907 33.8521 42.9527 33.9718C42.9147 34.0915 42.9006 34.2175 42.9113 34.3426C42.922 34.4678 42.9573 34.5896 43.0151 34.7011C43.0728 34.8126 43.152 34.9117 43.2481 34.9926L49.6851 40.3888L37.3108 50.9784C37.3108 50.9784 37.3107 50.9784 37.2481 51.0013L37.1764 51.0273L35.3367 53.2184L34.1132 54.678C33.9522 54.8702 33.7548 55.0287 33.5323 55.1444C33.3099 55.2602 33.0669 55.3309 32.8171 55.3526C32.315 55.3955 31.8163 55.2378 31.4302 54.9141L28.5109 52.4672C28.1526 52.1384 27.9335 51.6852 27.8984 51.2002C27.8633 50.7152 28.0148 50.2351 28.3221 49.8582L30.769 46.939L34.4197 50.0021C34.5483 50.1101 34.7032 50.1821 34.8687 50.211C35.0341 50.2398 35.2043 50.2244 35.3619 50.1663C35.5196 50.1096 35.6596 50.0123 35.7678 49.8842C35.8759 49.7561 35.9483 49.6018 35.9778 49.4368C36.0072 49.2718 35.9926 49.1019 35.9354 48.9443C35.8782 48.7867 35.7805 48.647 35.6521 48.5393L31.8874 45.3857L39.7538 32.0247L40.3525 32.5269C40.4485 32.6078 40.5596 32.6691 40.6793 32.7071C40.799 32.7451 40.925 32.7591 41.0501 32.7484C41.1753 32.7377 41.2971 32.7025 41.4086 32.6447C41.5201 32.5869 41.6192 32.5078 41.7001 32.4117C41.781 32.3157 41.8422 32.2046 41.8802 32.0849C41.9182 31.9652 41.9323 31.8392 41.9216 31.714C41.9109 31.5889 41.8757 31.4671 41.8179 31.3556C41.7601 31.244 41.6809 31.145 41.5849 31.0641L40.1253 29.8406C40.0188 29.7523 39.8944 29.6882 39.7606 29.6528C39.6269 29.6174 39.487 29.6115 39.3508 29.6356C39.2133 29.6582 39.0823 29.7107 38.9673 29.7894C38.8522 29.868 38.7558 29.971 38.6848 30.091L29.9077 44.9906L26.8942 48.5826C26.3547 49.2306 26.0452 50.0392 26.0142 50.8819C25.9832 51.7246 26.2325 52.5537 26.7229 53.2396L26.0131 54.0762C25.6481 54.5091 25.4199 55.0407 25.3573 55.6036C25.2948 56.1664 25.4009 56.7352 25.662 57.2377C25.9231 57.7402 26.3276 58.1538 26.8241 58.4262C27.3206 58.6985 27.8868 58.8173 28.4509 58.7675C28.7008 58.7449 28.9467 58.6895 29.1821 58.6028C29.6526 58.4293 30.0704 58.1375 30.3952 57.7555L31.105 56.919C31.697 57.2069 32.3552 57.3315 33.0114 57.28C33.3486 57.2542 33.6806 57.1812 33.9975 57.0631C34.6276 56.8354 35.1853 56.4434 35.6127 55.9275L36.229 55.1961L39.1514 57.652C39.7314 58.1379 40.4804 58.3741 41.2342 58.3089C41.9881 58.2436 42.6853 57.8822 43.1732 57.3039C43.415 57.0163 43.5977 56.6838 43.7109 56.3255C43.8241 55.9672 43.8656 55.5901 43.833 55.2157C43.8003 54.8414 43.6943 54.4771 43.5208 54.1438C43.3473 53.8105 43.1098 53.5146 42.8219 53.2732L40.1584 51.0273L51.7578 41.095C51.8629 41.0048 51.9472 40.8929 52.0047 40.7668C52.0622 40.6408 52.0915 40.5038 52.0906 40.3653C52.0901 40.2283 52.0601 40.093 52.0026 39.9686C51.945 39.8443 51.8614 39.7338 51.7573 39.6447L44.4805 33.5297ZM28.8965 56.5361C28.816 56.6322 28.7173 56.7115 28.6061 56.7694C28.4948 56.8273 28.3733 56.8626 28.2484 56.8735C27.9972 56.8974 27.7469 56.8207 27.5521 56.6603C27.456 56.5798 27.3768 56.4811 27.3189 56.3699C27.261 56.2587 27.2256 56.1371 27.2148 56.0122C27.2037 55.8867 27.2177 55.7603 27.2558 55.6402C27.2939 55.5201 27.3555 55.4088 27.4369 55.3127L28.0531 54.5812L29.5127 55.8047L28.8965 56.5361ZM41.5959 54.754C41.692 54.8345 41.7713 54.9332 41.8292 55.0444C41.8871 55.1556 41.9224 55.2771 41.9333 55.402C41.9523 55.653 41.8712 55.9012 41.7079 56.0926C41.5461 56.2846 41.3151 56.405 41.065 56.4276C40.815 56.4503 40.5661 56.3734 40.3725 56.2136L37.45 53.7576L38.6271 52.3656L38.6987 52.3396L41.5959 54.754Z" fill="#D2D2D2"/>
<path fill-rule="evenodd" clip-rule="evenodd" d="M114.67 1.16834L169.172 21.0055C170.729 21.5722 171.532 23.2937 170.965 24.8506L147.366 89.6894C146.799 91.2464 145.078 92.0491 143.521 91.4825L89.0186 71.6453C87.4617 71.0786 86.6589 69.3571 87.2256 67.8001L110.825 2.96136C111.392 1.40443 113.113 0.601663 114.67 1.16834ZM114.328 2.10803C113.29 1.73025 112.142 2.26542 111.765 3.30338L88.1653 68.1422C87.7875 69.1801 88.3227 70.3278 89.3607 70.7056L143.863 90.5428C144.901 90.9205 146.048 90.3854 146.426 89.3474L170.026 24.5086C170.403 23.4707 169.868 22.323 168.83 21.9452L114.328 2.10803Z" fill="#D2D2D2"/>
<path fill-rule="evenodd" clip-rule="evenodd" d="M165.925 24.0802L115.181 5.61115C114.662 5.42226 114.089 5.68985 113.9 6.20883L95.4306 56.9522C95.2417 57.4712 95.5093 58.045 96.0283 58.2339L146.772 76.703C147.291 76.8919 147.865 76.6243 148.053 76.1054L166.522 25.362C166.711 24.843 166.444 24.2691 165.925 24.0802ZM115.523 4.67146C114.485 4.29367 113.338 4.82885 112.96 5.86681L94.4909 56.6102C94.1131 57.6482 94.6483 58.7958 95.6863 59.1736L146.43 77.6427C147.468 78.0205 148.615 77.4853 148.993 76.4474L167.462 25.704C167.84 24.666 167.305 23.5183 166.267 23.1405L115.523 4.67146Z" fill="#D2D2D2"/>
<rect x="93.123" y="60.369" width="58" height="4" rx="2" transform="rotate(20 93.123 60.369)" fill="#D2D2D2"/>
<rect x="91.4126" y="65.0674" width="8" height="4" rx="2" transform="rotate(20 91.4126 65.0674)" fill="#D2D2D2"/>
<rect x="100.81" y="68.4876" width="8" height="4" rx="2" transform="rotate(20 100.81 68.4876)" fill="#D2D2D2"/>
<rect x="110.207" y="71.9078" width="8" height="4" rx="2" transform="rotate(20 110.207 71.9078)" fill="#D2D2D2"/>
<g clip-path="url(#clip0)">
<path d="M130.385 57.8675C130.538 57.4472 130.552 56.9883 130.425 56.5596C131.008 56.4306 131.507 56.0589 131.798 55.538C132.089 55.017 132.144 54.3969 131.948 53.8335C133.051 53.5129 133.689 52.3616 133.375 51.2564C134.292 51.0684 134.973 50.2941 135.042 49.3602C135.11 48.4266 134.55 47.5607 133.67 47.2404L131.624 46.4956L134.248 39.2862L142.84 42.4133C143.146 42.5247 143.479 42.3963 143.59 42.0897L147.589 31.1047C147.698 30.7975 147.537 30.4603 147.23 30.3513L138.638 27.2242L139.217 25.6339C139.32 25.3191 139.156 24.9791 138.844 24.8655L135.422 23.6198C135.11 23.5067 134.765 23.6609 134.642 23.9687L134.063 25.559L125.472 22.4319C125.166 22.318 124.826 22.4731 124.712 22.7785L120.714 33.7635C120.603 34.0698 120.775 34.3824 121.081 34.4939L129.673 37.6209L127.049 44.8312C125.795 44.3815 124.456 44.2249 123.133 44.3738L123.374 43.7104C123.428 43.5662 123.421 43.4064 123.355 43.2673C123.289 43.1282 123.169 43.0221 123.023 42.9727L119.593 41.724C119.451 41.6694 119.293 41.6757 119.156 41.7411C119.019 41.8065 118.915 41.9257 118.868 42.0704L114.625 53.7283C114.514 54.0346 114.644 54.3676 114.95 54.4792L118.381 55.7279C118.528 55.7802 118.69 55.7714 118.831 55.704C118.972 55.6365 119.08 55.5158 119.131 55.3683L119.24 55.068C120.172 56.0465 121.318 56.7966 122.588 57.259L127.702 59.1204C128.789 59.5136 129.989 58.9531 130.385 57.8675ZM135.551 24.9229L137.908 25.7807L137.529 26.8205L135.172 25.9627L135.551 24.9229ZM125.618 23.7413L146.276 31.2602L142.693 41.1038L122.035 33.585L125.618 23.7413ZM133.139 38.8825L130.515 46.0919L128.158 45.2341L130.782 38.0246L133.139 38.8825ZM118.222 54.4141L115.935 53.5815L119.77 43.0446L122.057 43.8772L118.222 54.4141ZM119.989 54.1425L119.695 53.8205L122.679 45.6213L123.111 45.5661C124.322 45.4082 125.552 45.5433 126.7 45.9595L133.267 48.3496C133.746 48.5238 133.992 49.053 133.818 49.5315C133.644 50.01 133.115 50.2569 132.636 50.0826L130.7 49.3779C130.393 49.2664 130.055 49.4244 129.943 49.7307C129.832 50.0369 129.99 50.3755 130.296 50.4871L131.668 50.9863C131.974 51.0878 132.2 51.3476 132.259 51.6647C132.319 51.9818 132.201 52.3057 131.952 52.5107C131.702 52.7156 131.362 52.7689 131.062 52.65L129.287 52.0039C128.981 51.8925 128.642 52.0504 128.531 52.3567C128.419 52.6629 128.577 53.0016 128.883 53.1131L130.295 53.627C130.774 53.8011 131.021 54.3304 130.846 54.8089C130.672 55.2874 130.143 55.5342 129.665 55.36L127.849 54.6993C127.543 54.5878 127.204 54.7457 127.093 55.052C126.981 55.3583 127.139 55.697 127.446 55.8084L128.736 56.2783C129.215 56.4525 129.462 56.9817 129.287 57.4602C129.113 57.9386 128.584 58.1855 128.106 58.0113L122.991 56.1498C121.845 55.7303 120.815 55.0419 119.989 54.1425Z" fill="#D2D2D2"/>
<path d="M126.52 28.2305L135.638 31.549C135.944 31.6605 136.283 31.5026 136.394 31.1963C136.506 30.89 136.348 30.5514 136.041 30.4399L126.924 27.1213C126.617 27.0098 126.279 27.1678 126.167 27.474C126.056 27.7803 126.214 28.119 126.52 28.2305Z" fill="#D2D2D2"/>
<path d="M142.447 34.8125L126.268 28.9237C125.962 28.8122 125.623 28.9701 125.512 29.2764C125.4 29.5827 125.558 29.9214 125.864 30.0328L142.044 35.9216C142.35 36.0331 142.688 35.8751 142.8 35.5689C142.911 35.2626 142.753 34.9239 142.447 34.8125Z" fill="#D2D2D2"/>
<path d="M141.791 36.6148L125.612 30.726C125.305 30.6146 124.967 30.7725 124.855 31.0788C124.744 31.385 124.902 31.7237 125.208 31.8352L141.387 37.724C141.694 37.8354 142.032 37.6775 142.144 37.3712C142.255 37.065 142.097 36.7263 141.791 36.6148Z" fill="#D2D2D2"/>
</g>
<rect x="56.1997" y="5.14228" width="64" height="75" rx="4" fill="white"/>
<path fill-rule="evenodd" clip-rule="evenodd" d="M59.1997 5.14228H117.2C118.857 5.14228 120.2 6.48543 120.2 8.14228V77.1423C120.2 78.7991 118.857 80.1423 117.2 80.1423H59.1997C57.5429 80.1423 56.1997 78.7991 56.1997 77.1423V8.14228C56.1997 6.48543 57.5429 5.14228 59.1997 5.14228ZM59.1997 6.14228C58.0951 6.14228 57.1997 7.03771 57.1997 8.14228V77.1423C57.1997 78.2468 58.0951 79.1423 59.1997 79.1423H117.2C118.304 79.1423 119.2 78.2468 119.2 77.1423V8.14228C119.2 7.03771 118.304 6.14228 117.2 6.14228H59.1997Z" fill="#D2D2D2"/>
<path fill-rule="evenodd" clip-rule="evenodd" d="M115.2 9.14228H61.1997C60.6474 9.14228 60.1997 9.59 60.1997 10.1423V64.1423C60.1997 64.6946 60.6474 65.1423 61.1997 65.1423H115.2C115.752 65.1423 116.2 64.6946 116.2 64.1423V10.1423C116.2 9.59 115.752 9.14228 115.2 9.14228ZM61.1997 8.14228C60.0951 8.14228 59.1997 9.03771 59.1997 10.1423V64.1423C59.1997 65.2468 60.0951 66.1423 61.1997 66.1423H115.2C116.304 66.1423 117.2 65.2468 117.2 64.1423V10.1423C117.2 9.03771 116.304 8.14228 115.2 8.14228H61.1997Z" fill="#D2D2D2"/>
<rect x="59.1997" y="68.1423" width="58" height="4" rx="2" fill="#D2D2D2"/>
<rect x="59.1997" y="73.1423" width="8" height="4" rx="2" fill="#D2D2D2"/>
<rect x="69.1997" y="73.1423" width="8" height="4" rx="2" fill="#D2D2D2"/>
<rect x="79.1997" y="73.1423" width="8" height="4" rx="2" fill="#D2D2D2"/>
<path d="M101.266 38.0514C101.514 38.0514 101.751 37.9556 101.926 37.7851C102.101 37.6146 102.2 37.3834 102.2 37.1423V28.0514C102.2 27.8103 102.101 27.579 101.926 27.4085C101.751 27.2381 101.514 27.1423 101.266 27.1423H75.133C74.8855 27.1423 74.6481 27.2381 74.4731 27.4085C74.298 27.579 74.1997 27.8103 74.1997 28.0514V46.2332C74.1997 46.4743 74.298 46.7055 74.4731 46.876C74.6481 47.0465 74.8855 47.1423 75.133 47.1423H101.266C101.514 47.1423 101.751 47.0465 101.926 46.876C102.101 46.7055 102.2 46.4743 102.2 46.2332V40.7786C102.2 40.5375 102.101 40.3063 101.926 40.1358C101.751 39.9653 101.514 39.8696 101.266 39.8696C101.019 39.8696 100.781 39.9653 100.606 40.1358C100.431 40.3063 100.333 40.5375 100.333 40.7786V45.3241H94.3784L89.9637 36.7332C89.8854 36.5843 89.7664 36.4593 89.6198 36.372C89.4733 36.2848 89.3048 36.2386 89.133 36.2386C88.9613 36.2386 88.7928 36.2848 88.6463 36.372C88.4997 36.4593 88.3807 36.5843 88.3024 36.7332L86.7997 39.6514L84.3637 34.915C84.2854 34.7661 84.1664 34.6411 84.0198 34.5539C83.8733 34.4666 83.7048 34.4204 83.533 34.4204C83.3613 34.4204 83.1928 34.4666 83.0463 34.5539C82.8997 34.6411 82.7807 34.7661 82.7024 34.915L77.3544 45.3241H76.0664V28.9605H100.333V37.1423C100.333 37.3834 100.431 37.6146 100.606 37.7851C100.781 37.9556 101.019 38.0514 101.266 38.0514ZM89.133 39.1786L92.2877 45.3241H89.7117L87.845 41.6877L89.133 39.1786ZM83.533 37.3605L87.621 45.3241H79.445L83.533 37.3605Z" fill="#D2D2D2"/>
<circle cx="96.6997" cy="32.6423" r="1.5" fill="#D2D2D2"/>
<defs>
<clipPath id="clip0">
<rect x="120.218" y="18.0863" width="36" height="36" transform="rotate(20 120.218 18.0863)" fill="white"/>
</clipPath>
</defs>
</svg>
